<svg xmlns="http://www.w3.org/2000/svg" viewBox="0 0 400 400"><defs><clipPath id="scr"><rect x="116" y="94" width="168" height="160" rx="12"/></clipPath></defs><rect width="400" height="400" fill="#1a1524"/><ellipse cx="200" cy="214" rx="140" ry="158" fill="#000" fill-opacity=".3"/><path fill="#7ec8e3" d="M112 72 Q200 44 288 72 Q318 110 312 200 Q318 300 288 336 Q200 360 112 336 Q82 300 88 200 Q82 110 112 72 Z"/><rect x="195" y="40" width="10" height="20" rx="4" fill="#7ec8e3"/><rect x="110" y="88" width="180" height="172" rx="18" fill="#1c1916" stroke="#2a2430" stroke-width="2"/><rect data-spk="1" x="156" y="261" width="10" height="3" rx="1" fill="#2a2430"/><rect data-spk="1" x="170" y="261" width="10" height="3" rx="1" fill="#2a2430"/><rect data-spk="1" x="184" y="261" width="10" height="3" rx="1" fill="#2a2430"/><circle cx="168" cy="276" r="10" fill="#3b82f6"/><circle cx="200" cy="276" r="10" fill="#3b82f6"/><circle cx="232" cy="276" r="10" fill="#3b82f6"/><text data-foot="1" x="132" y="328" text-anchor="start" fill="#3d3a44" font-size="11" font-family="sans-serif">PET#5</text><text data-gen="1" x="268" y="328" text-anchor="end" fill="#3d3a44" font-size="11" font-family="sans-serif">Alpha</text><g clip-path="url(#scr)"><g><rect x="116" y="94" width="168" height="160" fill="#f5edd8"/><ellipse cx="200" cy="174" rx="70" ry="64" fill="#fff" fill-opacity=".04"><animate attributeName="fill-opacity" values=".04;.12;.04" dur="2.8s" repeatCount="indefinite"/></ellipse><g><ellipse cx="196" cy="176" rx="36" ry="34" fill="#86efac"/><polygon points="196,128 204,112 212,128" fill="#86efac"/><ellipse cx="176" cy="196" rx="12" ry="7" fill="#86efac"/><rect x="188" y="208" width="4" height="14" rx="1" fill="#f59e0b"/><rect x="208" y="208" width="4" height="14" rx="1" fill="#f59e0b"/></g><ellipse data-belly="1" cx="196" cy="170" rx="20" ry="12" fill="#ffffff"/><g data-face="1" data-sp="6" data-cx="196" data-ey="148" data-gap="8"><g data-eyes="0" data-kind="0"><circle cx="188" cy="148" r="5" fill="#fff" stroke="#1e1930" stroke-width="2"/><circle cx="188" cy="148" r="3" fill="#1e1930"><animate attributeName="opacity" values="1;1;1;.2;1" dur="3.2s" repeatCount="indefinite"/></circle><circle cx="204" cy="148" r="5" fill="#fff" stroke="#1e1930" stroke-width="2"/><circle cx="204" cy="148" r="3" fill="#1e1930"><animate attributeName="opacity" values="1;1;1;.2;1" dur="3.2s" repeatCount="indefinite"/></circle></g><polygon data-beak="1" points="218,146 246,154 218,166" fill="#1e293b"/></g><ellipse data-gloss="1" cx="200" cy="114" rx="70" ry="22" fill="#fff" fill-opacity=".22"/><animateTransform attributeName="transform" type="translate" values="0 0;1 -1;-1 1;0 0" dur="9s" repeatCount="indefinite"/></g></g></svg>