<svg xmlns="http://www.w3.org/2000/svg" viewBox="0 0 400 400"><defs><clipPath id="scr"><rect x="116" y="94" width="168" height="160" rx="12"/></clipPath></defs><rect width="400" height="400" fill="#141018"/><path fill="#94a3b8" stroke="#2a2430" stroke-width="5" d="M140 58 L260 58 L312 110 L312 290 L260 342 L140 342 L88 290 L88 110 Z"/><line x1="200" y1="58" x2="188" y2="28" stroke="#2a2430" stroke-width="3"/><line x1="200" y1="58" x2="212" y2="28" stroke="#2a2430" stroke-width="3"/><rect x="116" y="94" width="168" height="160" rx="12" fill="#0c0a10" stroke="#2a2430" stroke-width="3"/><circle cx="168" cy="272" r="9" fill="#3b82f6" stroke="#2a2430" stroke-width="2"/><circle cx="200" cy="272" r="9" fill="#3b82f6" stroke="#2a2430" stroke-width="2"/><circle cx="232" cy="272" r="9" fill="#3b82f6" stroke="#2a2430" stroke-width="2"/><text x="200" y="324" text-anchor="middle" fill="#e8e4f0" font-size="13" font-family="monospace">PET#224</text><text x="200" y="342" text-anchor="middle" fill="#94a3b8" font-size="10" font-family="monospace">Alpha</text><g clip-path="url(#scr)"><g><rect x="116" y="94" width="168" height="160" fill="#fff4d6"/><path d="M148 94 V254 M180 94 V254 M212 94 V254 M244 94 V254 M116 126 H284 M116 158 H284 M116 190 H284 M116 222 H284" stroke="#fdba74" stroke-width="1" opacity=".4"/><ellipse cx="200" cy="174" rx="70" ry="64" fill="#fff" fill-opacity=".04"><animate attributeName="fill-opacity" values=".04;.12;.04" dur="2.8s" repeatCount="indefinite"/></ellipse><g><ellipse cx="196" cy="176" rx="36" ry="34" fill="#e0f2fe" stroke="#2a2430" stroke-width="3" stroke-linejoin="round"/><polygon points="196,128 204,112 212,128" fill="#e0f2fe" stroke="#2a2430" stroke-width="3" stroke-linejoin="round"/><ellipse cx="176" cy="190" rx="14" ry="8" fill="#e0f2fe" stroke="#2a2430" stroke-width="3" stroke-linejoin="round"/></g><ellipse data-belly="1" cx="200" cy="198" rx="18" ry="16" fill="#fdba74" stroke="#2a2430" stroke-width="2"/><g data-face="1" data-sp="6" data-cx="196" data-ey="148" data-gap="8"><circle cx="186" cy="158" r="2" fill="#c9897a"/><circle cx="192" cy="162" r="2" fill="#c9897a"/><circle cx="206" cy="158" r="2" fill="#c9897a"/><circle cx="200" cy="162" r="2" fill="#c9897a"/><path d="M188 134 L196 128 L204 134" fill="none" stroke="#2a2430" stroke-width="3"/><g data-eyes="4" data-kind="4"><ellipse cx="188" cy="148" rx="5" ry="11" fill="#fff" stroke="#2a2430" stroke-width="2"/><circle cx="188" cy="148" r="3" fill="#1e1930"><animate attributeName="opacity" values="1;1;1;.2;1" dur="3.2s" repeatCount="indefinite"/></circle><ellipse cx="204" cy="148" rx="5" ry="11" fill="#fff" stroke="#2a2430" stroke-width="2"/><circle cx="204" cy="148" r="3" fill="#1e1930"><animate attributeName="opacity" values="1;1;1;.2;1" dur="3.2s" repeatCount="indefinite"/></circle></g><polygon data-beak="1" points="218,146 246,154 218,166" fill="#f9a8d4" stroke="#2a2430" stroke-width="2"/></g><g data-acc="4"><circle data-lens="1" data-wire="1" cx="188" cy="148" r="7" fill="#dbeafe" fill-opacity=".22" stroke="#1e293b" stroke-width="1.6"/><circle data-lens="1" data-wire="1" cx="204" cy="148" r="7" fill="#dbeafe" fill-opacity=".22" stroke="#1e293b" stroke-width="1.6"/><path data-arch="1" d="M186 140 Q196 132 206 140" fill="none" stroke="#1e293b" stroke-width="1.6"/></g><animateTransform attributeName="transform" type="translate" values="0 0;1 -1;-1 1;0 0" dur="13s" repeatCount="indefinite"/></g></g></svg>