<svg xmlns="http://www.w3.org/2000/svg" viewBox="0 0 400 400"><defs><clipPath id="scr"><rect x="116" y="94" width="168" height="160" rx="12"/></clipPath></defs><rect width="400" height="400" fill="#1a1524"/><ellipse cx="200" cy="214" rx="140" ry="158" fill="#000" fill-opacity=".3"/><path fill="#94a3b8" d="M140 58 L260 58 L312 110 L312 290 L260 342 L140 342 L88 290 L88 110 Z"/><line x1="200" y1="56" x2="188" y2="28" stroke="#94a3b8" stroke-width="3"/><line x1="200" y1="56" x2="212" y2="28" stroke="#94a3b8" stroke-width="3"/><rect x="110" y="88" width="180" height="172" rx="18" fill="#1c1916" stroke="#2a2430" stroke-width="2"/><rect data-spk="1" x="156" y="256" width="10" height="3" rx="1" fill="#2a2430"/><rect data-spk="1" x="170" y="256" width="10" height="3" rx="1" fill="#2a2430"/><rect data-spk="1" x="184" y="256" width="10" height="3" rx="1" fill="#2a2430"/><circle cx="168" cy="276" r="10" fill="#3b82f6"/><circle cx="200" cy="276" r="10" fill="#3b82f6"/><circle cx="232" cy="276" r="10" fill="#3b82f6"/><text data-foot="1" x="132" y="328" text-anchor="start" fill="#3d3a44" font-size="11" font-family="sans-serif">PET#224</text><text data-gen="1" x="268" y="328" text-anchor="end" fill="#3d3a44" font-size="11" font-family="sans-serif">Alpha</text><g clip-path="url(#scr)"><g><rect x="116" y="94" width="168" height="160" fill="#e4efc4"/><path d="M148 94 V254 M180 94 V254 M212 94 V254 M244 94 V254" stroke="#c5d69a" stroke-width="3" opacity=".45"/><ellipse cx="200" cy="174" rx="70" ry="64" fill="#fff" fill-opacity=".04"><animate attributeName="fill-opacity" values=".04;.12;.04" dur="2.8s" repeatCount="indefinite"/></ellipse><g><ellipse cx="196" cy="176" rx="36" ry="34" fill="#e0f2fe"/><polygon points="196,128 204,112 212,128" fill="#e0f2fe"/><ellipse cx="176" cy="196" rx="12" ry="7" fill="#e0f2fe"/><rect x="188" y="208" width="4" height="14" rx="1" fill="#f59e0b"/><rect x="208" y="208" width="4" height="14" rx="1" fill="#f59e0b"/></g><g data-ears="1" fill="#e0f2fe"><polygon points="180,128 188,110 194,128"/><polygon points="198,128 204,110 212,128"/></g><ellipse data-belly="1" cx="196" cy="170" rx="20" ry="12" fill="#fdba74"/><g data-face="1" data-sp="6" data-cx="196" data-ey="148" data-gap="8"><circle cx="184" cy="160" r="2" fill="#2a2430"/><circle cx="208" cy="160" r="2" fill="#2a2430"/><g data-eyes="4" data-kind="4"><ellipse cx="188" cy="148" rx="5" ry="11" fill="#fff" stroke="#1e1930" stroke-width="2"/><circle cx="188" cy="148" r="3" fill="#1e1930"><animate attributeName="opacity" values="1;1;1;.2;1" dur="3.2s" repeatCount="indefinite"/></circle><ellipse cx="204" cy="148" rx="5" ry="11" fill="#fff" stroke="#1e1930" stroke-width="2"/><circle cx="204" cy="148" r="3" fill="#1e1930"><animate attributeName="opacity" values="1;1;1;.2;1" dur="3.2s" repeatCount="indefinite"/></circle></g><polygon data-beak="1" points="218,146 246,154 218,166" fill="#f9a8d4"/></g><g data-acc="4"><circle data-lens="1" data-wire="1" cx="188" cy="148" r="7" fill="#dbeafe" fill-opacity=".22" stroke="#1e293b" stroke-width="1.6"/><circle data-lens="1" data-wire="1" cx="204" cy="148" r="7" fill="#dbeafe" fill-opacity=".22" stroke="#1e293b" stroke-width="1.6"/><path data-arch="1" d="M186 140 Q196 132 206 140" fill="none" stroke="#1e293b" stroke-width="1.6"/></g><ellipse data-gloss="1" cx="200" cy="114" rx="70" ry="22" fill="#fff" fill-opacity=".22"/><animateTransform attributeName="transform" type="translate" values="0 0;1 -1;-1 1;0 0" dur="13s" repeatCount="indefinite"/></g></g></svg>