<svg xmlns="http://www.w3.org/2000/svg" viewBox="0 0 400 400"><defs><clipPath id="scr"><rect x="116" y="94" width="168" height="160" rx="12"/></clipPath></defs><rect width="400" height="400" fill="#141018"/><path fill="#fb923c" stroke="#2a2430" stroke-width="5" d="M112 72 Q200 44 288 72 Q318 110 312 200 Q318 300 288 336 Q200 360 112 336 Q82 300 88 200 Q82 110 112 72 Z"/><line x1="200" y1="58" x2="200" y2="36" stroke="#2a2430" stroke-width="3"/><ellipse cx="200" cy="28" rx="14" ry="8" fill="#fb923c" stroke="#2a2430" stroke-width="2"/><rect x="116" y="94" width="168" height="160" rx="12" fill="#0c0a10" stroke="#2a2430" stroke-width="3"/><circle cx="168" cy="272" r="9" fill="#ec4899" stroke="#2a2430" stroke-width="2"/><circle cx="200" cy="272" r="9" fill="#ec4899" stroke="#2a2430" stroke-width="2"/><circle cx="232" cy="272" r="9" fill="#ec4899" stroke="#2a2430" stroke-width="2"/><text x="200" y="324" text-anchor="middle" fill="#e8e4f0" font-size="13" font-family="monospace">PET#29</text><text x="200" y="342" text-anchor="middle" fill="#94a3b8" font-size="10" font-family="monospace">Delta</text><g clip-path="url(#scr)"><g><rect x="116" y="94" width="168" height="160" fill="#fff4d6"/><text x="150" y="140" font-size="16" fill="#fb7185" opacity=".45">&#9829;</text><text x="220" y="180" font-size="16" fill="#fb7185" opacity=".45">&#9829;</text><text x="170" y="220" font-size="16" fill="#fb7185" opacity=".45">&#9829;</text><ellipse cx="200" cy="174" rx="70" ry="64" fill="#fff" fill-opacity=".04"><animate attributeName="fill-opacity" values=".04;.12;.04" dur="2.8s" repeatCount="indefinite"/></ellipse><g><ellipse cx="196" cy="176" rx="36" ry="34" fill="#c084fc" stroke="#2a2430" stroke-width="3" stroke-linejoin="round"/><polygon points="196,128 204,112 212,128" fill="#c084fc" stroke="#2a2430" stroke-width="3" stroke-linejoin="round"/><ellipse cx="176" cy="190" rx="14" ry="8" fill="#c084fc" stroke="#2a2430" stroke-width="3" stroke-linejoin="round"/></g><ellipse data-belly="1" cx="200" cy="198" rx="18" ry="16" fill="#f5e6c8" stroke="#2a2430" stroke-width="2"/><g data-face="1" data-sp="6" data-cx="196" data-ey="148" data-gap="8"><circle cx="186" cy="158" r="2" fill="#c9897a"/><circle cx="192" cy="162" r="2" fill="#c9897a"/><circle cx="206" cy="158" r="2" fill="#c9897a"/><circle cx="200" cy="162" r="2" fill="#c9897a"/><path d="M186 134 Q196 142 206 134" fill="none" stroke="#2a2430" stroke-width="3"/><g data-eyes="2" data-kind="2"><ellipse cx="188" cy="148" rx="11" ry="7" fill="#fff" stroke="#2a2430" stroke-width="2"/><circle cx="188" cy="148" r="3" fill="#64748b"><animate attributeName="opacity" values="1;1;1;.2;1" dur="3.2s" repeatCount="indefinite"/></circle><ellipse cx="204" cy="148" rx="11" ry="7" fill="#fff" stroke="#2a2430" stroke-width="2"/><circle cx="204" cy="148" r="3" fill="#64748b"><animate attributeName="opacity" values="1;1;1;.2;1" dur="3.2s" repeatCount="indefinite"/></circle></g><polygon data-beak="1" points="218,146 246,154 218,166" fill="#38bdf8" stroke="#2a2430" stroke-width="2"/></g><g data-acc="4"><circle data-lens="1" data-wire="1" cx="188" cy="148" r="7" fill="#dbeafe" fill-opacity=".22" stroke="#1e293b" stroke-width="1.6"/><circle data-lens="1" data-wire="1" cx="204" cy="148" r="7" fill="#dbeafe" fill-opacity=".22" stroke="#1e293b" stroke-width="1.6"/><path data-arch="1" d="M186 140 Q196 132 206 140" fill="none" stroke="#1e293b" stroke-width="1.6"/></g><animateTransform attributeName="transform" type="translate" values="0 0;1 -1;-1 1;0 0" dur="15s" repeatCount="indefinite"/></g></g></svg>