<svg xmlns="http://www.w3.org/2000/svg" viewBox="0 0 400 400"><defs><clipPath id="scr"><rect x="116" y="94" width="168" height="160" rx="12"/></clipPath></defs><rect width="400" height="400" fill="#141018"/><path fill="#fb923c" stroke="#2a2430" stroke-width="5" d="M118 70 C90 110 96 150 88 190 C80 250 110 330 200 344 C290 330 320 250 312 190 C304 150 310 110 282 70 C248 50 152 50 118 70 Z"/><line x1="200" y1="58" x2="200" y2="40" stroke="#2a2430" stroke-width="3"/><circle cx="200" cy="32" r="8" fill="#fb923c" stroke="#2a2430" stroke-width="2"/><rect x="116" y="94" width="168" height="160" rx="12" fill="#0c0a10" stroke="#2a2430" stroke-width="3"/><circle cx="168" cy="272" r="9" fill="#ec4899" stroke="#2a2430" stroke-width="2"/><circle cx="200" cy="272" r="9" fill="#ec4899" stroke="#2a2430" stroke-width="2"/><circle cx="232" cy="272" r="9" fill="#ec4899" stroke="#2a2430" stroke-width="2"/><text x="200" y="324" text-anchor="middle" fill="#e8e4f0" font-size="13" font-family="monospace">PET#3</text><text x="200" y="342" text-anchor="middle" fill="#94a3b8" font-size="10" font-family="monospace">Delta</text><g clip-path="url(#scr)"><g><rect x="116" y="94" width="168" height="160" fill="#fff4d6"/><rect x="116" y="110" width="168" height="10" fill="#fde68a" opacity=".45"/><rect x="116" y="150" width="168" height="10" fill="#fde68a" opacity=".45"/><rect x="116" y="190" width="168" height="10" fill="#fde68a" opacity=".45"/><ellipse cx="200" cy="174" rx="70" ry="64" fill="#fff" fill-opacity=".04"><animate attributeName="fill-opacity" values=".04;.12;.04" dur="2.8s" repeatCount="indefinite"/></ellipse><g><ellipse cx="200" cy="186" rx="46" ry="40" fill="#4ade80" stroke="#2a2430" stroke-width="3" stroke-linejoin="round"/><polygon points="164,122 176,152 150,150" fill="#4ade80" stroke="#2a2430" stroke-width="3" stroke-linejoin="round"/><polygon points="236,122 250,150 224,150" fill="#4ade80" stroke="#2a2430" stroke-width="3" stroke-linejoin="round"/></g><ellipse data-belly="1" cx="200" cy="198" rx="18" ry="16" fill="#4ade80" stroke="#2a2430" stroke-width="2"/><g data-face="1" data-sp="1" data-cx="200" data-ey="170" data-gap="15"><ellipse cx="183" cy="180" rx="6" ry="4" fill="#f9a8d4" opacity=".8"/><ellipse cx="217" cy="180" rx="6" ry="4" fill="#f9a8d4" opacity=".8"/><path d="M192 156 L200 150 L208 156" fill="none" stroke="#2a2430" stroke-width="3"/><g data-eyes="2" data-kind="2"><ellipse cx="185" cy="170" rx="11" ry="7" fill="#fff" stroke="#2a2430" stroke-width="2"/><circle cx="185" cy="170" r="3" fill="#64748b"><animate attributeName="opacity" values="1;1;1;.2;1" dur="3.2s" repeatCount="indefinite"/></circle><ellipse cx="215" cy="170" rx="11" ry="7" fill="#fff" stroke="#2a2430" stroke-width="2"/><circle cx="215" cy="170" r="3" fill="#64748b"><animate attributeName="opacity" values="1;1;1;.2;1" dur="3.2s" repeatCount="indefinite"/></circle></g><path d="M192 188 H208" fill="none" stroke="#2a2430" stroke-width="2.5"/></g><polygon data-acc="3" points="218,118 222,128 234,128 224,134 228,146 218,138 208,146 212,134 202,128 214,128" fill="#fbbf24" stroke="#2a2430" stroke-width="2"/><animateTransform attributeName="transform" type="translate" values="0 0;1 -1;-1 1;0 0" dur="15s" repeatCount="indefinite"/></g></g></svg>