<svg xmlns="http://www.w3.org/2000/svg" viewBox="0 0 400 400"><defs><clipPath id="scr"><rect x="116" y="94" width="168" height="160" rx="12"/></clipPath></defs><rect width="400" height="400" fill="#141018"/><path fill="#f4a6c8" stroke="#2a2430" stroke-width="5" d="M112 72 Q200 44 288 72 Q318 110 312 200 Q318 300 288 336 Q200 360 112 336 Q82 300 88 200 Q82 110 112 72 Z"/><line x1="200" y1="58" x2="188" y2="28" stroke="#2a2430" stroke-width="3"/><line x1="200" y1="58" x2="212" y2="28" stroke="#2a2430" stroke-width="3"/><rect x="116" y="94" width="168" height="160" rx="12" fill="#0c0a10" stroke="#2a2430" stroke-width="3"/><circle cx="168" cy="272" r="9" fill="#ef4444" stroke="#2a2430" stroke-width="2"/><circle cx="200" cy="272" r="9" fill="#ef4444" stroke="#2a2430" stroke-width="2"/><circle cx="232" cy="272" r="9" fill="#ef4444" stroke="#2a2430" stroke-width="2"/><text x="200" y="324" text-anchor="middle" fill="#e8e4f0" font-size="13" font-family="monospace">PET#7</text><text x="200" y="342" text-anchor="middle" fill="#94a3b8" font-size="10" font-family="monospace">Delta</text><g clip-path="url(#scr)"><g><rect x="116" y="94" width="168" height="160" fill="#fff4d6"/><path d="M148 94 V254 M180 94 V254 M212 94 V254 M244 94 V254 M116 126 H284 M116 158 H284 M116 190 H284 M116 222 H284" stroke="#fdba74" stroke-width="1" opacity=".4"/><ellipse cx="200" cy="174" rx="70" ry="64" fill="#fff" fill-opacity=".04"><animate attributeName="fill-opacity" values=".04;.12;.04" dur="2.8s" repeatCount="indefinite"/></ellipse><g data-ghost="1"><path d="M160 150 Q160 118 200 118 Q240 118 240 150 L240 210 Q228 200 216 210 Q204 200 200 210 Q196 200 184 210 Q172 200 160 210 Z" fill="#fde047" stroke="#2a2430" stroke-width="3" stroke-linejoin="round"/></g><g data-face="1" data-sp="4" data-cx="200" data-ey="168" data-gap="16"><path d="M192 154 L200 148 L208 154" fill="none" stroke="#2a2430" stroke-width="3"/><g data-eyes="5" data-kind="5"><ellipse cx="184" cy="168" rx="7" ry="7" fill="#1e1930"><animate attributeName="opacity" values="1;1;1;.2;1" dur="3.2s" repeatCount="indefinite"/></ellipse><ellipse cx="216" cy="168" rx="7" ry="7" fill="#1e1930"><animate attributeName="opacity" values="1;1;1;.2;1" dur="3.2s" repeatCount="indefinite"/></ellipse></g><path d="M190 188 Q200 200 210 188 Z" fill="#1e1930"/></g><g data-acc="1" fill="#7a3a58" stroke="#2a2430" stroke-width="1.5"><ellipse cx="192" cy="128" rx="8" ry="6"/><ellipse cx="208" cy="128" rx="8" ry="6"/><circle cx="200" cy="128" r="3"/></g><animateTransform attributeName="transform" type="translate" values="0 0;1 -1;-1 1;0 0" dur="15s" repeatCount="indefinite"/></g></g></svg>