<svg xmlns="http://www.w3.org/2000/svg" viewBox="0 0 400 400"><defs><clipPath id="scr"><rect x="116" y="94" width="168" height="160" rx="12"/></clipPath></defs><rect width="400" height="400" fill="#1a1524"/><ellipse cx="200" cy="214" rx="140" ry="158" fill="#000" fill-opacity=".3"/><path fill="#7ec8e3" d="M112 72 Q200 44 288 72 Q318 110 312 200 Q318 300 288 336 Q200 360 112 336 Q82 300 88 200 Q82 110 112 72 Z"/><rect x="195" y="40" width="10" height="20" rx="4" fill="#7ec8e3"/><rect x="110" y="88" width="180" height="172" rx="18" fill="#1c1916" stroke="#2a2430" stroke-width="2"/><rect data-spk="1" x="156" y="256" width="10" height="3" rx="1" fill="#2a2430"/><rect data-spk="1" x="170" y="256" width="10" height="3" rx="1" fill="#2a2430"/><rect data-spk="1" x="184" y="256" width="10" height="3" rx="1" fill="#2a2430"/><circle cx="168" cy="276" r="10" fill="#3b82f6"/><circle cx="200" cy="276" r="10" fill="#3b82f6"/><circle cx="232" cy="276" r="10" fill="#3b82f6"/><text data-foot="1" x="132" y="328" text-anchor="start" fill="#3d3a44" font-size="11" font-family="sans-serif">PET#5</text><text data-gen="1" x="268" y="328" text-anchor="end" fill="#3d3a44" font-size="11" font-family="sans-serif">Alpha</text><g clip-path="url(#scr)"><g><rect x="116" y="94" width="168" height="160" fill="#f5edd8"/><ellipse cx="200" cy="174" rx="70" ry="64" fill="#fff" fill-opacity=".04"><animate attributeName="fill-opacity" values=".04;.12;.04" dur="2.8s" repeatCount="indefinite"/></ellipse><g data-dino="1"><ellipse cx="176" cy="206" rx="6" ry="11" fill="#86efac"/><ellipse cx="190" cy="208" rx="6" ry="11" fill="#86efac"/><ellipse cx="206" cy="208" rx="6" ry="11" fill="#86efac"/><ellipse cx="220" cy="206" rx="6" ry="11" fill="#86efac"/><ellipse data-tail="1" cx="244" cy="186" rx="20" ry="11" fill="#86efac"/><ellipse cx="262" cy="190" rx="10" ry="7" fill="#86efac"/><ellipse data-dino-body="1" cx="200" cy="176" rx="40" ry="28" fill="#86efac"/><polygon data-ridge="1" points="176,158 184,124 196,156" fill="#86efac"/><polygon points="192,152 202,118 214,152" fill="#86efac"/><polygon points="210,154 220,122 230,156" fill="#86efac"/><polygon points="226,158 234,132 242,164" fill="#86efac"/><ellipse data-dino-head="1" cx="158" cy="152" rx="24" ry="22" fill="#86efac"/><ellipse data-snout="1" cx="138" cy="160" rx="12" ry="9" fill="#86efac"/></g><g data-face="1" data-sp="2" data-cx="158" data-ey="152" data-gap="8"><g data-eyes="0" data-kind="0"><circle cx="158" cy="152" data-dino-eye="1" r="5" fill="#fff" stroke="#1e1930" stroke-width="2"/><circle cx="158" cy="152" r="3" fill="#1e1930"><animate attributeName="opacity" values="1;1;1;.2;1" dur="3.2s" repeatCount="indefinite"/></circle></g><path d="M148 166 Q158 175 168 166" fill="none" stroke="#1e1930" stroke-width="2"/></g><g data-acc="5"><ellipse cx="158" cy="120" rx="18" ry="6" fill="none" stroke="#fbbf24" stroke-width="3"/><circle cx="172" cy="116" r="8" fill="#fde68a" stroke="#fbbf24" stroke-width="2"/></g><ellipse data-gloss="1" cx="200" cy="114" rx="70" ry="22" fill="#fff" fill-opacity=".22"/><animateTransform attributeName="transform" type="translate" values="0 0;1 -1;-1 1;0 0" dur="9s" repeatCount="indefinite"/></g></g></svg>