<svg xmlns="http://www.w3.org/2000/svg" viewBox="0 0 400 400"><defs><clipPath id="scr"><rect x="116" y="94" width="168" height="160" rx="12"/></clipPath></defs><rect width="400" height="400" fill="#141018"/><path fill="#7ec8e3" stroke="#2a2430" stroke-width="5" d="M112 72 Q200 44 288 72 Q318 110 312 200 Q318 300 288 336 Q200 360 112 336 Q82 300 88 200 Q82 110 112 72 Z"/><rect x="194" y="42" width="12" height="22" rx="4" fill="#7ec8e3" stroke="#2a2430" stroke-width="2"/><rect x="116" y="94" width="168" height="160" rx="12" fill="#0c0a10" stroke="#2a2430" stroke-width="3"/><circle cx="168" cy="272" r="9" fill="#3b82f6" stroke="#2a2430" stroke-width="2"/><circle cx="200" cy="272" r="9" fill="#3b82f6" stroke="#2a2430" stroke-width="2"/><circle cx="232" cy="272" r="9" fill="#3b82f6" stroke="#2a2430" stroke-width="2"/><text x="200" y="324" text-anchor="middle" fill="#e8e4f0" font-size="13" font-family="monospace">PET#10</text><text x="200" y="342" text-anchor="middle" fill="#94a3b8" font-size="10" font-family="monospace">Alpha</text><g clip-path="url(#scr)"><g><rect x="116" y="94" width="168" height="160" fill="#fff4d6"/><ellipse cx="200" cy="174" rx="70" ry="64" fill="#fff" fill-opacity=".04"><animate attributeName="fill-opacity" values=".04;.12;.04" dur="2.8s" repeatCount="indefinite"/></ellipse><g><ellipse cx="200" cy="184" rx="42" ry="40" fill="#86efac" stroke="#2a2430" stroke-width="3" stroke-linejoin="round"/><polygon points="170,132 176,154 158,150" fill="#86efac" stroke="#2a2430" stroke-width="3" stroke-linejoin="round"/><polygon points="230,132 242,150 224,154" fill="#86efac" stroke="#2a2430" stroke-width="3" stroke-linejoin="round"/></g><ellipse data-belly="1" cx="200" cy="198" rx="18" ry="16" fill="#ffffff" stroke="#2a2430" stroke-width="2"/><g data-face="1" data-sp="10" data-cx="200" data-ey="172" data-gap="14"><g data-eyes="0" data-kind="0"><circle cx="186" cy="172" r="5" fill="#fff" stroke="#2a2430" stroke-width="2"/><circle cx="186" cy="172" r="3" fill="#1e1930"><animate attributeName="opacity" values="1;1;1;.2;1" dur="3.2s" repeatCount="indefinite"/></circle><circle cx="214" cy="172" r="5" fill="#fff" stroke="#2a2430" stroke-width="2"/><circle cx="214" cy="172" r="3" fill="#1e1930"><animate attributeName="opacity" values="1;1;1;.2;1" dur="3.2s" repeatCount="indefinite"/></circle></g><path d="M190 190 Q200 200 210 190" fill="none" stroke="#2a2430" stroke-width="2.5"/></g><g data-acc="4"><circle data-lens="1" cx="186" cy="172" r="10" fill="#dbeafe" fill-opacity=".22" stroke="#1e293b" stroke-width="2"/><circle data-lens="1" cx="214" cy="172" r="10" fill="#dbeafe" fill-opacity=".22" stroke="#1e293b" stroke-width="2"/><path data-bridge="1" d="M196 172 H204" stroke="#1e293b" stroke-width="2"/></g><animateTransform attributeName="transform" type="translate" values="0 0;1 -1;-1 1;0 0" dur="9s" repeatCount="indefinite"/></g></g></svg>