<svg xmlns="http://www.w3.org/2000/svg" viewBox="0 0 400 400"><defs><clipPath id="scr"><rect x="116" y="94" width="168" height="160" rx="12"/></clipPath></defs><rect width="400" height="400" fill="#1a1524"/><ellipse cx="200" cy="214" rx="140" ry="158" fill="#000" fill-opacity=".3"/><path fill="#6ee7b7" d="M108 64 H292 Q312 64 312 84 V316 Q312 336 292 336 H108 Q88 336 88 316 V84 Q88 64 108 64 Z"/><line x1="200" y1="56" x2="188" y2="28" stroke="#6ee7b7" stroke-width="3"/><line x1="200" y1="56" x2="212" y2="28" stroke="#6ee7b7" stroke-width="3"/><rect x="110" y="88" width="180" height="172" rx="18" fill="#1c1916" stroke="#2a2430" stroke-width="2"/><rect data-spk="1" x="156" y="256" width="10" height="3" rx="1" fill="#2a2430"/><rect data-spk="1" x="170" y="256" width="10" height="3" rx="1" fill="#2a2430"/><rect data-spk="1" x="184" y="256" width="10" height="3" rx="1" fill="#2a2430"/><circle cx="168" cy="276" r="10" fill="#14b8a6"/><circle cx="200" cy="276" r="10" fill="#14b8a6"/><circle cx="232" cy="276" r="10" fill="#14b8a6"/><text data-foot="1" x="132" y="328" text-anchor="start" fill="#3d3a44" font-size="11" font-family="sans-serif">PET#267</text><text data-gen="1" x="268" y="328" text-anchor="end" fill="#3d3a44" font-size="11" font-family="sans-serif">Alpha</text><g clip-path="url(#scr)"><g><rect x="116" y="94" width="168" height="160" fill="#f5edd8"/><ellipse cx="200" cy="174" rx="70" ry="64" fill="#fff" fill-opacity=".04"><animate attributeName="fill-opacity" values=".04;.12;.04" dur="2.8s" repeatCount="indefinite"/></ellipse><g data-dino="1"><ellipse cx="176" cy="206" rx="6" ry="11" fill="#e0f2fe"/><ellipse cx="190" cy="208" rx="6" ry="11" fill="#e0f2fe"/><ellipse cx="206" cy="208" rx="6" ry="11" fill="#e0f2fe"/><ellipse cx="220" cy="206" rx="6" ry="11" fill="#e0f2fe"/><ellipse data-tail="1" cx="244" cy="186" rx="20" ry="11" fill="#e0f2fe"/><ellipse cx="262" cy="190" rx="10" ry="7" fill="#e0f2fe"/><ellipse data-dino-body="1" cx="200" cy="176" rx="40" ry="28" fill="#e0f2fe"/><polygon data-ridge="1" points="176,158 184,124 196,156" fill="#e0f2fe"/><polygon points="192,152 202,118 214,152" fill="#e0f2fe"/><polygon points="210,154 220,122 230,156" fill="#e0f2fe"/><polygon points="226,158 234,132 242,164" fill="#e0f2fe"/><ellipse data-dino-head="1" cx="158" cy="152" rx="24" ry="22" fill="#e0f2fe"/><ellipse data-snout="1" cx="138" cy="160" rx="12" ry="9" fill="#e0f2fe"/></g><g data-face="1" data-sp="2" data-cx="158" data-ey="152" data-gap="8"><circle cx="146" cy="164" r="2" fill="#2a2430"/><circle cx="170" cy="164" r="2" fill="#2a2430"/><g data-eyes="4" data-kind="4"><ellipse cx="158" cy="152" data-dino-eye="1" rx="5" ry="11" fill="#fff" stroke="#1e1930" stroke-width="2"/><circle cx="158" cy="152" r="3" fill="#64748b"><animate attributeName="opacity" values="1;1;1;.2;1" dur="3.2s" repeatCount="indefinite"/></circle></g><path d="M148 166 Q158 178 168 166 Z" fill="#1e1930"/></g><g data-acc="4"><circle data-mono="1" data-lens="1" cx="158" cy="152" r="12" fill="#dbeafe" fill-opacity=".22" stroke="#1e293b" stroke-width="2"/></g><ellipse data-gloss="1" cx="200" cy="114" rx="70" ry="22" fill="#fff" fill-opacity=".22"/><animateTransform attributeName="transform" type="translate" values="0 0;1 -1;-1 1;0 0" dur="9s" repeatCount="indefinite"/></g></g></svg>