<svg xmlns="http://www.w3.org/2000/svg" viewBox="0 0 400 400"><defs><clipPath id="scr"><rect x="116" y="94" width="168" height="160" rx="12"/></clipPath></defs><rect width="400" height="400" fill="#1a1524"/><ellipse cx="200" cy="214" rx="140" ry="158" fill="#000" fill-opacity=".3"/><path fill="#e7d3a8" d="M140 58 L260 58 L312 110 L312 290 L260 342 L140 342 L88 290 L88 110 Z"/><rect x="110" y="88" width="180" height="172" rx="18" fill="#1c1916" stroke="#2a2430" stroke-width="2"/><rect data-spk="1" x="156" y="261" width="10" height="3" rx="1" fill="#2a2430"/><rect data-spk="1" x="170" y="261" width="10" height="3" rx="1" fill="#2a2430"/><rect data-spk="1" x="184" y="261" width="10" height="3" rx="1" fill="#2a2430"/><circle cx="168" cy="276" r="10" fill="#f8fafc"/><circle cx="200" cy="276" r="10" fill="#f8fafc"/><circle cx="232" cy="276" r="10" fill="#f8fafc"/><text data-foot="1" x="132" y="328" text-anchor="start" fill="#3d3a44" font-size="11" font-family="sans-serif">PET#42</text><text data-gen="1" x="268" y="328" text-anchor="end" fill="#3d3a44" font-size="11" font-family="sans-serif">Delta</text><g clip-path="url(#scr)"><g><rect x="116" y="94" width="168" height="160" fill="#16141c"/><g data-egg="1"><ellipse cx="200" cy="174" rx="38" ry="50" fill="#e8e0d4" stroke="#2a2430" stroke-width="3"/><ellipse cx="188" cy="160" rx="4" ry="5" fill="#d4c4a8"/><ellipse cx="212" cy="178" rx="5" ry="4" fill="#d4c4a8"/><ellipse cx="196" cy="196" rx="4" ry="4" fill="#d4c4a8"/><animateTransform attributeName="transform" type="translate" values="0 0;0 -1;0 0" dur="22s" repeatCount="indefinite"/></g><g><text x="230" y="120" fill="#e2e8f0" font-size="14" font-family="monospace">Z</text><text x="244" y="110" fill="#e2e8f0" font-size="18" font-family="monospace">z</text><animate attributeName="opacity" values="0.35;0.95;0.55;0.35" dur="2.4s" repeatCount="indefinite"/><animateTransform attributeName="transform" type="translate" values="0 0;0 -4;0 0" dur="2.4s" repeatCount="indefinite"/></g><animateTransform attributeName="transform" type="translate" values="0 0;1 -1;-1 1;0 0" dur="128s" repeatCount="indefinite"/></g></g></svg>