<svg xmlns="http://www.w3.org/2000/svg" viewBox="0 0 400 400"><defs><clipPath id="scr"><rect x="116" y="94" width="168" height="160" rx="12"/></clipPath></defs><rect width="400" height="400" fill="#1a1524"/><ellipse cx="200" cy="214" rx="140" ry="158" fill="#000" fill-opacity=".3"/><path fill="#60a5fa" d="M118 70 C90 110 96 150 88 190 C80 250 110 330 200 344 C290 330 320 250 312 190 C304 150 310 110 282 70 C248 50 152 50 118 70 Z"/><rect x="110" y="88" width="180" height="172" rx="18" fill="#1c1916" stroke="#2a2430" stroke-width="2"/><rect data-spk="1" x="156" y="256" width="10" height="3" rx="1" fill="#2a2430"/><rect data-spk="1" x="170" y="256" width="10" height="3" rx="1" fill="#2a2430"/><rect data-spk="1" x="184" y="256" width="10" height="3" rx="1" fill="#2a2430"/><circle cx="168" cy="276" r="10" fill="#f8fafc"/><circle cx="200" cy="276" r="10" fill="#f8fafc"/><circle cx="232" cy="276" r="10" fill="#f8fafc"/><text data-foot="1" x="132" y="328" text-anchor="start" fill="#3d3a44" font-size="11" font-family="sans-serif">PET#5</text><text data-gen="1" x="268" y="328" text-anchor="end" fill="#3d3a44" font-size="11" font-family="sans-serif">Beta</text><g clip-path="url(#scr)"><g><rect x="116" y="94" width="168" height="160" fill="#f5edd8"/><rect x="116" y="110" width="168" height="10" fill="#fde68a" opacity=".45"/><rect x="116" y="150" width="168" height="10" fill="#fde68a" opacity=".45"/><rect x="116" y="190" width="168" height="10" fill="#fde68a" opacity=".45"/><ellipse cx="200" cy="174" rx="70" ry="64" fill="#fff" fill-opacity=".04"><animate attributeName="fill-opacity" values=".04;.12;.04" dur="2.8s" repeatCount="indefinite"/></ellipse><g><ellipse cx="200" cy="190" rx="52" ry="32" fill="#86efac"/><ellipse cx="176" cy="150" rx="16" ry="14" fill="#86efac"/><ellipse cx="224" cy="150" rx="16" ry="14" fill="#86efac"/></g><g data-ears="3" fill="#86efac"><ellipse cx="178" cy="146" rx="8" ry="16"/><ellipse cx="222" cy="146" rx="8" ry="16"/></g><ellipse data-belly="1" cx="200" cy="198" rx="22" ry="12" fill="#f5e6c8"/><g data-face="1" data-sp="7" data-cx="200" data-ey="156" data-gap="24"><ellipse cx="170" cy="168" rx="7" ry="5" fill="#f2b6a0"/><ellipse cx="230" cy="168" rx="7" ry="5" fill="#f2b6a0"/><g data-eyes="5" data-kind="5"><circle cx="176" cy="156" r="9" fill="none" stroke="#1e1930" stroke-width="2"/><circle cx="176" cy="156" r="5" fill="#fff" stroke="#1e1930" stroke-width="2"/><circle cx="176" cy="158" r="3" fill="#1e1930"><animate attributeName="opacity" values="1;1;1;.2;1" dur="3.2s" repeatCount="indefinite"/></circle><circle cx="224" cy="156" r="9" fill="none" stroke="#1e1930" stroke-width="2"/><circle cx="224" cy="156" r="5" fill="#fff" stroke="#1e1930" stroke-width="2"/><circle cx="224" cy="158" r="3" fill="#1e1930"><animate attributeName="opacity" values="1;1;1;.2;1" dur="3.2s" repeatCount="indefinite"/></circle></g><path d="M190 196 Q200 208 210 196 Z" fill="#1e1930"/></g><polygon data-acc="3" points="218,128 222,138 234,138 224,144 228,156 218,148 208,156 212,144 202,138 214,138" fill="#fbbf24"/><ellipse data-gloss="1" cx="200" cy="114" rx="70" ry="22" fill="#fff" fill-opacity=".22"/><animateTransform attributeName="transform" type="translate" values="0 0;1 -1;-1 1;0 0" dur="9s" repeatCount="indefinite"/></g></g></svg>